<?xml version="1.0" encoding="utf-8"?>
<!-- Generator: Adobe Illustrator 19.0.0, SVG Export Plug-In . SVG Version: 6.00 Build 0)  -->
<svg version="1.1" id="Layer_1" xmlns="http://www.w3.org/2000/svg" xmlns:xlink="http://www.w3.org/1999/xlink" x="0px" y="0px"
	 viewBox="0 0 612 259" style="enable-background:new 0 0 612 259;" xml:space="preserve">
<style type="text/css">
	.st0{fill:#55B748;}
	.st1{fill:#056C9F;}
</style>
<g id="XMLID_49_">
	<g id="Group_105" transform="translate(-157.591 5885.454)">
		<g id="Group_104" transform="translate(0 -0.144)">
			<path id="Path_424" class="st0" d="M181.1-5699.5c2.7,0,4.9,2.2,4.9,4.9c0,0.3,0,0.3,0,0.5s0,0.8,0,0.8h-9.2
				c0,2.4,1.9,4.6,4.3,4.6h0.3c1.3,0,2.7-0.5,3.5-1.3l0.8,1.3c-1.3,1.1-2.7,1.6-4.3,1.6c-3.2,0-5.9-2.4-6.2-5.7c0-0.3,0-0.3,0-0.5
				c-0.3-3.2,2.2-5.9,5.4-6.2C180.8-5699.5,181.1-5699.5,181.1-5699.5z M184.6-5694.7c0.3-1.9-1.1-3.5-3-3.5h-0.3
				c-2.2,0-3.8,1.6-4,3.5H184.6z"/>
			<path id="Path_425" class="st0" d="M189.2-5699.3h1.6v1.9c0,0.5,0,0.8,0,0.8l0,0c0.8-1.6,2.4-3,4.3-3c1.9-0.3,3.5,1.1,3.5,2.7
				c0,0,0,0,0,0.3l0,0c0.8-1.6,2.4-3,4.3-3c3,0,3.8,1.6,3.8,4.6v7.6h-1.6v-7c0-1.9-0.3-3.5-2.7-3.5c-1.9,0.3-3.2,1.6-3.8,3.2
				c-0.3,0.5-0.3,1.1-0.3,1.6v5.7h-1.6v-7c0-1.9-0.3-3.5-2.4-3.5c-1.9,0.3-3.5,1.6-3.8,3.5c0,0.5-0.3,1.1-0.3,1.6v5.7h-1.6
				L189.2-5699.3L189.2-5699.3z"/>
			<path id="Path_426" class="st0" d="M210.5-5699.3h1.6v1.1c0,0.5,0,0.8,0,0.8l0,0c0.8-1.6,2.4-2.4,4-2.4c3.2,0,5.1,2.4,5.1,6.2
				c0.3,3-1.9,5.7-4.9,6.2c-0.3,0-0.3,0-0.5,0c-1.6,0-3.2-0.8-3.8-2.2l0,0c0,0,0,0.5,0,1.1v5.7h-1.6V-5699.3L210.5-5699.3z
				 M215.9-5688.7c2.2,0,3.8-1.9,3.8-4.9c0-3-1.6-4.6-3.8-4.6c-1.9,0-3.8,1.3-3.8,4.9C211.8-5691.2,213.4-5689,215.9-5688.7
				L215.9-5688.7L215.9-5688.7z"/>
			<path id="Path_427" class="st0" d="M229.6-5699.5c3.2,0,6.2,2.7,6.2,5.9c0,0,0,0,0,0.3c0,3.5-2.7,6.2-6.2,6.5
				c-3.5,0-6.2-2.7-6.5-6.2C223.4-5696.8,226.1-5699.5,229.6-5699.5L229.6-5699.5z M229.6-5688.7c2.7,0,4.6-2.2,4.6-4.6l0,0
				c0-2.4-2.2-4.6-4.6-4.6c-2.4,0-4.6,2.2-4.6,4.6S226.9-5688.7,229.6-5688.7L229.6-5688.7z"/>
			<path id="Path_428" class="st0" d="M237.5-5699.3h1.6l3,8.6c0.3,0.5,0.3,1.3,0.3,1.3l0,0c0,0,0.3-0.8,0.3-1.3l3-8.6h1.6l3,8.6
				c0.3,0.5,0.3,1.3,0.3,1.3l0,0c0,0,0.3-0.8,0.3-1.3l3-8.6h1.6l-4,11.9h-1.6l-3-8.4c-0.3-0.5-0.3-1.3-0.3-1.3l0,0
				c0,0-0.3,0.8-0.3,1.3l-3,8.4h-1.6L237.5-5699.3z"/>
			<path id="Path_429" class="st0" d="M262.5-5699.5c2.7,0,4.9,2.2,4.9,4.9c0,0.3,0,0.3,0,0.5s0,0.8,0,0.8h-9.2
				c0,2.4,1.9,4.6,4.3,4.6h0.3c1.3,0,2.7-0.5,3.5-1.3l0.8,1.3c-1.3,1.1-2.7,1.6-4.3,1.6c-3.2,0-5.9-2.4-6.2-5.7c0-0.3,0-0.3,0-0.5
				c-0.3-3.2,2.2-5.9,5.4-6.2C262.3-5699.5,262.5-5699.5,262.5-5699.5z M266.1-5694.7c0.3-1.9-1.1-3.5-3-3.5h-0.3
				c-2.2,0-3.8,1.6-4,3.5H266.1z"/>
			<path id="Path_430" class="st0" d="M270.6-5699.3h1.6v2.2c0,0.5,0,0.8,0,0.8l0,0c0.3-1.9,1.9-3,3.8-3.2c0.3,0,0.5,0,0.5,0v1.6
				c-0.3,0-0.3,0-0.5,0c-1.6,0-3,1.3-3.5,3c-0.3,0.8-0.3,1.6-0.3,2.4v4.9h-1.6L270.6-5699.3z"/>
			<path id="Path_431" class="st0" d="M283.9-5699.5c2.7,0,4.9,2.2,4.9,4.9c0,0.3,0,0.3,0,0.5s0,0.8,0,0.8h-9.2
				c0,2.4,1.9,4.6,4.3,4.6h0.3c1.3,0,2.7-0.5,3.5-1.3l0.8,1.3c-1.3,1.1-2.7,1.6-4.3,1.6c-3.2,0-5.9-2.4-6.2-5.7c0-0.3,0-0.3,0-0.5
				c-0.3-3.2,2.2-5.9,5.4-6.2C283.3-5699.5,283.6-5699.5,283.9-5699.5z M287.1-5694.7c0.3-1.9-1.1-3.5-3-3.5h-0.3
				c-2.2,0-3.8,1.6-4,3.5H287.1z"/>
			<path id="Path_432" class="st0" d="M296.3-5699.5c1.6,0,3,0.8,3.8,2.2l0,0c0,0,0-0.3,0-0.8v-5.7h1.6v16.5H300v-1.3
				c0-0.3,0-0.5,0-0.8l0,0c-0.8,1.6-2.4,2.4-4,2.4c-3.2,0-5.1-2.4-5.1-6.2c-0.3-3,1.9-5.7,4.9-6.2
				C296-5699.5,296-5699.5,296.3-5699.5z M296.3-5688.7c1.9,0,3.8-1.3,3.8-4.9c0-2.4-1.3-4.6-3.8-4.6c-2.2,0-3.8,1.9-3.8,4.6
				C292.5-5690.9,294.1-5688.7,296.3-5688.7L296.3-5688.7z"/>
			<path id="Path_433" class="st0" d="M314.9-5703.9h1.1v1.6h-1.1V-5703.9z M315.2-5699.3h1.1v11.6h-1.1V-5699.3z"/>
			<path id="Path_434" class="st0" d="M320-5699.3h1.1v2.2c0,0.3,0,0.5,0,1.1l0,0c0.8-1.9,2.7-3.2,4.9-3.2c3,0,3.8,1.9,3.8,4.6v7.6
				h-1.1v-7c0-2.2-0.3-4-3-4c-2.2,0-4,1.6-4.9,3.8c-0.3,0.5-0.3,1.1-0.3,1.6v5.7h-1.1v-12.1H320z"/>
			<path id="Path_435" class="st0" d="M333.8-5699.3h1.1v2.2c0,0.3,0,0.5,0,1.1l0,0c0.8-1.9,2.7-3.2,4.9-3.2c3,0,3.8,1.9,3.8,4.6
				v7.6h-1.1v-7c0-2.2-0.3-4-3-4c-2.2,0-4,1.6-4.9,3.8c-0.3,0.5-0.3,1.1-0.3,1.6v5.7h-1.1v-12.1H333.8z"/>
			<path id="Path_436" class="st0" d="M352.7-5699.5c3.2,0,5.9,2.7,6.2,5.9l0,0c0,3.2-2.7,5.9-5.9,5.9s-5.9-2.7-5.9-5.9l0,0
				C346.7-5696.8,349.4-5699.5,352.7-5699.5L352.7-5699.5z M352.7-5688.2c2.7,0,5.1-2.4,5.1-5.1l0,0c0-2.7-2.2-5.1-4.9-5.1
				c-2.7,0-5.1,2.2-5.1,4.9v0.3C347.8-5690.6,350-5688.2,352.7-5688.2L352.7-5688.2z"/>
			<path id="Path_437" class="st0" d="M360.5-5699.3h1.1l3.5,9.2c0.3,0.5,0.3,0.8,0.3,1.3l0,0c0,0,0.3-0.8,0.3-1.3l3.5-9.2h1.1
				l-4.6,11.6h-0.8L360.5-5699.3z"/>
			<path id="Path_438" class="st0" d="M379.4-5694.7h0.8v-0.3c0-2.7-1.3-3.5-3.2-3.5c-1.1,0-2.4,0.3-3.2,1.1l-0.5-0.8
				c1.1-0.8,2.4-1.3,4-1.3c2.7,0,4,1.6,4,4.3v7.6h-1.1v-1.6c0-0.3,0-0.8,0-1.1l0,0c-0.5,1.6-2.2,2.7-4,3s-3.8-1.3-4-3.2v-0.3
				C372.1-5694.7,377.2-5694.7,379.4-5694.7z M376.1-5688.2c2.4-0.3,4.3-2.4,4-4.9v-0.5h-0.8c-1.9,0-6.2,0-6.2,3
				C373.2-5689.3,374.5-5688.2,376.1-5688.2L376.1-5688.2L376.1-5688.2z"/>
			<path id="Path_439" class="st0" d="M385.3-5698.2h-1.6v-0.8h1.6v-3.2h1.1v3.2h3v0.8h-3v6.5c0,3,1.9,3.5,2.7,3.5
				c0.3,0,0.3,0,0.5,0v0.8c-0.3,0-0.3,0-0.5,0c-1.3,0-3.8-0.5-3.8-4.3V-5698.2L385.3-5698.2z"/>
			<path id="Path_440" class="st0" d="M392.3-5703.9h1.1v1.6h-1.1V-5703.9z M392.3-5699.3h1.1v11.6h-1.1V-5699.3z"/>
			<path id="Path_441" class="st0" d="M402.8-5699.5c3.2,0,5.9,2.7,6.2,5.9l0,0c0,3.2-2.7,5.9-5.9,5.9s-5.9-2.7-5.9-5.9l0,0
				C396.6-5696.8,399.3-5699.5,402.8-5699.5C402.6-5699.5,402.6-5699.5,402.8-5699.5z M402.8-5688.2c2.7,0,5.1-2.4,5.1-5.1l0,0
				c0-2.7-2.2-5.1-4.9-5.1s-5.1,2.2-5.1,4.9v0.3C397.7-5690.6,399.9-5688.2,402.8-5688.2C402.6-5688.2,402.6-5688.2,402.8-5688.2z"
				/>
			<path id="Path_442" class="st0" d="M412-5699.3h1.1v2.2c0,0.3,0,0.5,0,1.1l0,0c0.8-1.9,2.7-3.2,4.9-3.2c3,0,3.8,1.9,3.8,4.6v7.6
				h-1.1v-7c0-2.2-0.3-4-3-4c-2.2,0-4,1.6-4.9,3.8c-0.3,0.5-0.3,1.1-0.3,1.6v5.7h-1.1v-12.1H412z"/>
			<g id="XMLID_46_">
				<g id="XMLID_47_">
					<path id="XMLID_56_" class="st1" d="M215.3-5736.2h-23.7l-6.2,18.1h-8.9l22.7-62.9h9.2l22.7,62.9h-9.2L215.3-5736.2z
						 M203.5-5772.4c0,0-1.3,5.7-2.4,8.9l-7,20h19.2l-7-20C205.1-5766.7,203.7-5772.4,203.5-5772.4L203.5-5772.4z"/>
					<path id="XMLID_20_" class="st1" d="M237.2-5729.8c0,0,5.1,5.1,13,5.1c3.8,0,7.6-1.9,7.6-5.7c0-8.4-23.2-6.5-23.2-21.3
						c0-8.1,7.3-13,16.2-13c10,0,14.6,4.9,14.6,4.9l-3.5,6.5c0,0-4-4-11.1-4c-3.8,0-7.3,1.6-7.3,5.4c0,8.1,23.2,6.2,23.2,21
						c0,7.6-6.5,13.2-16.2,13.2c-11.1,0-17-6.5-17-6.5L237.2-5729.8z"/>
					<path id="XMLID_19_" class="st1" d="M273.6-5729.8c0,0,5.1,5.1,13,5.1c3.8,0,7.6-1.9,7.6-5.7c0-8.4-23.2-6.5-23.2-21.3
						c0-8.1,7.3-13,16.2-13c10,0,14.6,4.9,14.6,4.9l-3.5,6.5c0,0-4-4-11.1-4c-3.8,0-7.3,1.6-7.3,5.4c0,8.1,23.2,6.2,23.2,21
						c0,7.6-6.5,13.2-16.2,13.2c-11.1,0-17-6.5-17-6.5L273.6-5729.8z"/>
					<path id="XMLID_51_" class="st1" d="M328.9-5764.3c12.7,0,19.4,9.4,19.4,21c0,1.1-0.3,3.8-0.3,3.8h-32.9
						c0.5,10,7.6,14.8,15.4,14.8s13.5-5.1,13.5-5.1l3.5,6.2c0,0-6.7,6.5-17.5,6.5c-14.3,0-24-10.3-24-23.7
						C306.3-5755.1,316-5764.3,328.9-5764.3 M339.4-5745.9c-0.3-7.8-5.1-11.6-10.8-11.6c-6.5,0-11.9,4-13.2,11.6H339.4z"/>
					<path id="XMLID_16_" class="st1" d="M358.9-5755.7h-5.9v-7h6.2v-13h8.4v13h10.8v7h-10.8v20c0,8.9,6.2,10.3,9.7,10.3
						c1.3,0,2.2-0.3,2.2-0.3v7.6c0,0-1.3,0.3-3,0.3c-5.7,0-17.3-1.9-17.3-16.7C358.9-5734.6,358.9-5755.7,358.9-5755.7z"/>
					<path id="XMLID_15_" class="st1" d="M384-5723l22.7-28.6c1.9-2.4,3.8-4.3,3.8-4.3v-0.3c0,0-1.3,0.3-4.3,0.3h-21v-7.3h37v4.9
						l-22.7,28.6c-1.9,2.4-3.8,4-3.8,4v0.3c0,0,1.6-0.3,4.6-0.3h22.9v7.3h-38.9L384-5723L384-5723z"/>
					<path id="XMLID_14_" class="st0" d="M415-5775.6c0.3,0.3,0.3,0.5,0.5,1.1c0,0.3,0,0.5,0,1.1l-0.3,0.3H415
						c-0.5-0.3-1.1-0.8-1.3-1.6c-11.9-18.6-40.5-47.8-92.3-48c-51.8-0.3-82.8,43.4-82.8,43.4c-1.3,1.6-2.7,3.2-4.6,4.3
						c-0.8,0.5-1.9,0.8-2.7,1.1c-0.5,0-1.1,0-1.3,0c-1.3-0.3-2.2-1.1-2.4-2.4c0-0.3-0.3-0.3-0.3-0.5c0-0.5,0-1.1,0-1.6
						c0-0.3,0.3-0.3,0.3-0.5c0-0.3,0-0.5,0.3-0.8c0.5-2.2,1.9-4.3,3.2-5.9c0,0,32.1-44.5,90.7-42.9
						C380.2-5827.2,408-5787.8,415-5775.6z"/>
				</g>
			</g>
		</g>
	</g>
	<g id="XMLID_50_">
		<path id="XMLID_52_" d="M353.9,111.7c0.4,0.9,1,1.6,1.8,2.1c0.7,0.5,1.6,0.9,2.6,1.2c1,0.3,2,0.4,3.1,0.4c0.7,0,1.5-0.1,2.3-0.2
			c0.8-0.1,1.6-0.4,2.3-0.7c0.7-0.3,1.3-0.8,1.8-1.4c0.5-0.6,0.7-1.4,0.7-2.3c0-1-0.3-1.8-1-2.4c-0.6-0.6-1.5-1.1-2.5-1.6
			c-1-0.4-2.2-0.8-3.5-1.1c-1.3-0.3-2.6-0.7-4-1c-1.4-0.3-2.7-0.8-4-1.3c-1.3-0.5-2.5-1.1-3.5-1.9c-1-0.8-1.9-1.8-2.5-3
			c-0.6-1.2-1-2.6-1-4.3c0-1.9,0.4-3.6,1.2-5c0.8-1.4,1.9-2.6,3.2-3.5c1.3-0.9,2.8-1.6,4.5-2.1c1.7-0.4,3.3-0.7,5-0.7
			c1.9,0,3.8,0.2,5.6,0.6c1.8,0.4,3.4,1.1,4.7,2.1c1.4,1,2.5,2.2,3.3,3.7c0.8,1.5,1.2,3.3,1.2,5.5h-7.9c-0.1-1.1-0.3-2-0.7-2.8
			c-0.4-0.7-0.9-1.3-1.6-1.7c-0.7-0.4-1.4-0.7-2.3-0.9c-0.8-0.2-1.8-0.3-2.8-0.3c-0.7,0-1.3,0.1-2,0.2c-0.7,0.1-1.3,0.4-1.8,0.7
			c-0.5,0.3-1,0.8-1.3,1.3c-0.3,0.5-0.5,1.2-0.5,2c0,0.7,0.1,1.3,0.4,1.8c0.3,0.5,0.8,0.9,1.6,1.2c0.8,0.4,1.9,0.8,3.4,1.1
			c1.4,0.4,3.3,0.9,5.6,1.5c0.7,0.1,1.7,0.4,2.9,0.8c1.2,0.4,2.4,0.9,3.7,1.7c1.2,0.8,2.3,1.9,3.1,3.2c0.9,1.3,1.3,3,1.3,5.1
			c0,1.7-0.3,3.3-1,4.7s-1.6,2.7-2.9,3.8c-1.3,1.1-2.9,1.9-4.8,2.5c-1.9,0.6-4.1,0.9-6.7,0.9c-2,0-4-0.3-5.9-0.8
			c-1.9-0.5-3.6-1.3-5.1-2.4c-1.5-1.1-2.6-2.4-3.5-4.1c-0.9-1.7-1.3-3.6-1.2-5.9h7.9C353.2,109.8,353.4,110.9,353.9,111.7z"/>
		<path id="XMLID_54_" d="M408.6,118c-2.8,2.4-6.7,3.7-11.6,3.7c-5,0-8.9-1.2-11.7-3.6c-2.8-2.4-4.1-6.2-4.1-11.2v-23h8.1v23
			c0,1,0.1,2,0.3,3c0.2,1,0.5,1.8,1.1,2.6c0.6,0.7,1.3,1.3,2.3,1.8c1,0.5,2.3,0.7,4,0.7c2.9,0,4.9-0.6,6-1.9
			c1.1-1.3,1.7-3.3,1.7-6.1v-23h8.1v23C412.8,111.9,411.4,115.6,408.6,118z"/>
		<path id="XMLID_57_" d="M427.9,83.8l15.5,24.9h0.1V83.8h7.6v37.1h-8.1l-15.4-24.8h-0.1v24.8h-7.6V83.8H427.9z"/>
		<path id="XMLID_59_" d="M491.1,83.8l13.9,37.1h-8.5l-2.8-8.3h-13.9l-2.9,8.3h-8.2l14-37.1H491.1z M491.6,106.5l-4.7-13.6h-0.1
			l-4.8,13.6H491.6z"/>
		<path id="XMLID_62_" d="M516.3,83.8l15.5,24.9h0.1V83.8h7.6v37.1h-8.1l-15.4-24.8h-0.1v24.8h-7.6V83.8H516.3z"/>
		<path id="XMLID_64_" d="M562.6,83.8c2.4,0,4.6,0.4,6.7,1.1c2.1,0.8,3.8,1.9,5.3,3.4c1.5,1.5,2.7,3.4,3.5,5.7c0.8,2.3,1.3,5,1.3,8
			c0,2.7-0.3,5.2-1,7.5c-0.7,2.3-1.7,4.3-3.1,5.9s-3.1,3-5.2,3.9c-2.1,1-4.6,1.4-7.4,1.4h-16V83.8H562.6z M562.1,114
			c1.2,0,2.3-0.2,3.4-0.6c1.1-0.4,2.1-1,3-1.9c0.9-0.9,1.6-2,2.1-3.5c0.5-1.4,0.8-3.1,0.8-5.2c0-1.9-0.2-3.6-0.5-5.1
			c-0.4-1.5-1-2.8-1.8-3.9c-0.8-1.1-1.9-1.9-3.3-2.5c-1.4-0.6-3.1-0.9-5.1-0.9h-5.8V114H562.1z"/>
		<path id="XMLID_67_" d="M340.9,162.2c0.4,0.9,1,1.6,1.8,2.1c0.7,0.5,1.6,0.9,2.6,1.2c1,0.3,2,0.4,3.1,0.4c0.7,0,1.5-0.1,2.3-0.2
			c0.8-0.1,1.6-0.4,2.3-0.7c0.7-0.3,1.3-0.8,1.8-1.4c0.5-0.6,0.7-1.4,0.7-2.3c0-1-0.3-1.8-1-2.4c-0.6-0.6-1.5-1.1-2.5-1.6
			c-1-0.4-2.2-0.8-3.5-1.1c-1.3-0.3-2.6-0.7-4-1c-1.4-0.3-2.7-0.8-4-1.3c-1.3-0.5-2.5-1.1-3.5-1.9c-1-0.8-1.9-1.8-2.5-3
			c-0.6-1.2-1-2.6-1-4.3c0-1.9,0.4-3.6,1.2-5c0.8-1.4,1.9-2.6,3.2-3.5c1.3-0.9,2.8-1.6,4.5-2.1c1.7-0.4,3.3-0.7,5-0.7
			c1.9,0,3.8,0.2,5.6,0.6c1.8,0.4,3.4,1.1,4.7,2.1c1.4,1,2.5,2.2,3.3,3.7c0.8,1.5,1.2,3.3,1.2,5.5h-7.9c-0.1-1.1-0.3-2-0.7-2.8
			c-0.4-0.7-0.9-1.3-1.6-1.7c-0.7-0.4-1.4-0.7-2.3-0.9c-0.8-0.2-1.8-0.3-2.8-0.3c-0.7,0-1.3,0.1-2,0.2c-0.7,0.1-1.3,0.4-1.8,0.7
			c-0.5,0.3-1,0.8-1.3,1.3c-0.3,0.5-0.5,1.2-0.5,2c0,0.7,0.1,1.3,0.4,1.8c0.3,0.5,0.8,0.9,1.6,1.2c0.8,0.4,1.9,0.8,3.4,1.1
			c1.4,0.4,3.3,0.9,5.6,1.5c0.7,0.1,1.7,0.4,2.9,0.8c1.2,0.4,2.4,0.9,3.7,1.7c1.2,0.8,2.3,1.9,3.1,3.2c0.9,1.3,1.3,3,1.3,5.1
			c0,1.7-0.3,3.3-1,4.7s-1.6,2.7-2.9,3.8c-1.3,1.1-2.9,1.9-4.8,2.5c-1.9,0.6-4.1,0.9-6.7,0.9c-2,0-4-0.3-5.9-0.8
			c-1.9-0.5-3.6-1.3-5.1-2.4c-1.5-1.1-2.6-2.4-3.5-4.1c-0.9-1.7-1.3-3.6-1.2-5.9h7.9C340.2,160.3,340.5,161.4,340.9,162.2z"/>
		<path id="XMLID_69_" d="M386.8,134.3l13.9,37.1h-8.5l-2.8-8.3h-13.9l-2.9,8.3h-8.2l14-37.1H386.8z M387.3,157l-4.7-13.6h-0.1
			l-4.8,13.6H387.3z"/>
		<path id="XMLID_72_" d="M412,134.3l15.5,24.9h0.1v-24.9h7.6v37.1h-8.1l-15.4-24.8h-0.1v24.8h-7.6v-37.1H412z"/>
		<path id="XMLID_74_" d="M466.1,144.2c-0.5-0.8-1.1-1.5-1.8-2.1c-0.7-0.6-1.5-1-2.5-1.4c-0.9-0.3-1.9-0.5-2.9-0.5
			c-1.8,0-3.4,0.4-4.7,1.1c-1.3,0.7-2.3,1.7-3.1,2.9c-0.8,1.2-1.4,2.6-1.7,4.1c-0.4,1.5-0.5,3.1-0.5,4.7c0,1.6,0.2,3.1,0.5,4.5
			c0.4,1.5,0.9,2.8,1.7,4c0.8,1.2,1.8,2.1,3.1,2.8c1.3,0.7,2.8,1.1,4.7,1.1c2.5,0,4.4-0.8,5.8-2.3c1.4-1.5,2.3-3.5,2.6-6h7.9
			c-0.2,2.3-0.7,4.4-1.6,6.3c-0.9,1.9-2,3.5-3.4,4.8c-1.4,1.3-3.1,2.3-5,3c-1.9,0.7-4,1-6.3,1c-2.8,0-5.4-0.5-7.7-1.5
			c-2.3-1-4.2-2.3-5.7-4.1c-1.6-1.7-2.8-3.8-3.6-6.1s-1.2-4.9-1.2-7.6c0-2.8,0.4-5.3,1.2-7.7c0.8-2.4,2-4.4,3.6-6.2s3.5-3.1,5.7-4.2
			c2.3-1,4.8-1.5,7.7-1.5c2,0,4,0.3,5.8,0.9s3.4,1.4,4.9,2.6c1.4,1.1,2.6,2.5,3.6,4.2c0.9,1.7,1.5,3.6,1.8,5.7h-7.9
			C466.9,145.8,466.6,145,466.1,144.2z"/>
		<path id="XMLID_76_" d="M477.9,141.2v-6.9h30.4v6.9h-11.1v30.2H489v-30.2H477.9z"/>
		<path id="XMLID_78_" d="M539.8,168.5c-2.8,2.4-6.7,3.7-11.6,3.7c-5,0-8.9-1.2-11.7-3.6c-2.8-2.4-4.1-6.2-4.1-11.2v-23h8.1v23
			c0,1,0.1,2,0.3,3c0.2,1,0.5,1.8,1.1,2.6c0.6,0.7,1.3,1.3,2.3,1.8c1,0.5,2.3,0.7,4,0.7c2.9,0,4.9-0.6,6-1.9
			c1.1-1.3,1.7-3.3,1.7-6.1v-23h8.1v23C544,162.4,542.6,166.1,539.8,168.5z"/>
		<path id="XMLID_80_" d="M562.5,134.3l8.7,25.5h0.1l8.2-25.5h11.5v37.1h-7.6v-26.3h-0.1l-9.1,26.3h-6.3l-9.1-26h-0.1v26H551v-37.1
			H562.5z"/>
	</g>
	<rect id="XMLID_48_" x="301" y="53.5" width="2.3" height="152.1"/>
</g>
</svg>
